# xmcd CD database file
#
# Track frame offsets:
#	150
#	20075
#	42341
#	66414
#	84564
#	108255
#	126481
#	157316
#	159537
#	179200
#	200967
#	242189
#
# Disc length: 3522 seconds
#
# Revision: 2
# Processed by: cddbd v1.5.2PL0 Copyright (c) Steve Scherf et al.
# Submitted via: jetAudio 7
#
DISCID=bd0dc00c
DTITLE=Lana Lane - Return to Japan [CD2]
DYEAR=2004
DGENRE=Hard Rock
TTITLE0=Take a Breath
TTITLE1=Stardust
TTITLE2=Symphony of Angels
TTITLE3=Dream On
TTITLE4=Alexandria
TTITLE5=Autumn Leaves
TTITLE6=Let Heaven In
TTITLE7=Dreamcurrents
TTITLE8=Avalon
TTITLE9=Seasons End
TTITLE10=In the Court of the Crimson King
TTITLE11=Long Live Rock 'N' Roll
EXTD=YEAR: 2004
EXTT0=
EXTT1=
EXTT2=
EXTT3=
EXTT4=
EXTT5=
EXTT6=
EXTT7=
EXTT8=
EXTT9=
EXTT10=
EXTT11=
PLAYORDER=
